.
 
http://www.scenetime.com    -  Hottest private tracker on the net. !!!

New release on http://www.scenetime.com

        Seed back for speed


...................................NFO:.................................................                                             
                               
                                 
                                      
                                      
                                       
    CoaX!&lt;CPH&gt;                         
                               
                         
                            
          
    Team FiCO &lt;Final Coalition&gt; 2k8 Presents:    
    

Pat.Cooper.Youre.Always.Yelling.2003.DVDRip.XviD-FiCO 
http://www.amazon.com/Pat-Cooper-Live-Always-Yelling/dp/B0008FXSQA
Subtitles: None
Date: 2012.01

Director: Gerard Ascolese
Genre: Standup Comedy
Plot: On this special edition DVD, Pat Cooper brings his uproariously 
funny, lovable anger into your living room and keeps you laughing from 
beginning to end. For nearly four decades Pat Cooper, described by some 
of the worlds most famous entertainers as the "comedians comedian", 
has appeared on many stages, from comedy clubs to major theaters. With 
his impeccable timing, comedic genius and commanding stage presence he 
always leaves his sold-out audiences roaring. Pat Cooper - Youre Always 
Yelling Live features the comedian at his best, ranting and raving and 
making us keel over with laughter. This special edition DVD contains the 
Bonus feature Mangia, Mangia, Pats wild and delirious take on food. 
Youre Always Yelling  Live is that rare comedy program that will keep 
you laughing time and time again. You will treasure it forever.

Actors: Pat Cooper

Stats:
General
Format                           : AVI
Format/Info                      : Audio Video Interleave
File size                        : 695 MiB
Duration                         : 1h 16mn
Overall bit rate                 : 1 263 Kbps
Writing application              : VirtualDubMod 1.5.10.2 (build 2542/release)
Writing library                  : VirtualDubMod build 2542/release

Video
ID                               : 0
Format                           : MPEG-4 Visual
Format profile                   : Advanced Simple@L5
Format settings, BVOP            : Yes
Format settings, QPel            : No
Format settings, GMC             : No warppoints
Format settings, Matrix          : Default (H.263)
Codec ID                         : XVID
Codec ID/Hint                    : XviD
Duration                         : 1h 16mn
Bit rate                         : 1 059 Kbps
Width                            : 512 pixels
Height                           : 384 pixels
Display aspect ratio             : 4:3
Frame rate                       : 29.970 fps
Resolution                       : 8 bits
Colorimetry                      : 4:2:0
Scan type                        : Progressive
Bits/(Pixel*Frame)               : 0.180
Stream size                      : 583 MiB (84%)
Writing library                  : XviD 61

Audio
ID                               : 1
Format                           : AC-3
Format/Info                      : Audio Coding 3
Format_Settings_ModeExtension    : CM (complete main)
Codec ID                         : 2000
Duration                         : 1h 16mn
Bit rate mode                    : Constant
Bit rate                         : 192 Kbps
Channel(s)                       : 2 channels
Channel positions                : Front: L R
Sampling rate                    : 48.0 KHz
Stream size                      : 106 MiB (15%)
Alignment                        : Split accross interleaves
Interleave, duration             : 33 ms (1.00 video frame)
Interleave, preload duration     : 500 ms




Release notes:
enjoy!


                                                                     
                                                             
                                                               
                                                               
                       
      
              Greetz from Team FiCO:               
              
                                                             
                                                             
           BLooDWeiSeR,CULTXviD,SiCK,DoNE,LAP,TH30R1STS              
                                                                             
               WinBeta, DvF, WASTE, BERC, KALEVALA, Jiggly                   
                                                                             
                                                             
                                       
                             
                      
                  
           
            
                    
                  
                
                            
                                        
                                        
                                            
                                                    
                                                              
                      you know where to find us...                     
                        
   NFO By: CoaXCable/CoolPHat &lt;#CPH&gt;